<svg width="175" height="138" viewBox="0 0 175 138" fill="none" xmlns="http://www.w3.org/2000/svg">
<path d="M69.0457 29.337C72.2256 37.552 66.563 47.4013 59.3338 50.1996C52.1046 52.9979 41.5839 49.4129 38.404 41.1979C35.2241 32.9828 39.3455 20.8588 46.5748 18.0605C56.2144 14.3292 65.8658 21.122 69.0457 29.337Z" fill="#D1D5DB"/>
<path d="M73.1228 28.9828C71.4086 37.6234 78.6864 46.3474 86.2901 47.8558C93.8938 49.3643 103.638 44.017 105.352 35.3764C107.066 26.7358 100.914 15.5052 93.3098 13.9968C83.1708 11.9854 74.8369 20.3422 73.1228 28.9828Z" fill="#D1D5DB"/>
<path d="M147.865 91.9787C147.865 121.048 119.663 131.854 81.1935 131.854C42.7241 131.854 15.1602 121.048 15.1602 91.9787C15.1602 58.1645 42.7241 28.1783 81.1935 28.1783C119.663 28.1783 147.865 55.6125 147.865 91.9787Z" fill="#F3F4F6"/>
<path d="M129.763 91.644C129.763 112.954 110.004 120.876 83.0525 120.876C56.1006 120.876 36.7891 112.954 36.7891 91.644C36.7891 66.8555 56.1006 44.8733 83.0525 44.8733C110.004 44.8733 129.763 64.9847 129.763 91.644Z" fill="#F9FAFB"/>
<path d="M80.5082 88.6709C80.5082 95.7181 76.211 103.449 70.2058 103.449C64.2007 103.449 54.5 97.707 54.5 87.18C54.5 77.2909 64.9796 73.7739 75.8086 75.5798C82.4457 76.6866 80.5082 81.6237 80.5082 88.6709Z" fill="#D1D5DB"/>
<path d="M75.4857 87.9591C75.4857 89.0161 75.1837 89.8731 73.6735 89.8731C72.1634 89.8731 71.8613 89.0161 71.8613 87.9591C71.8613 86.902 72.4654 86.045 73.6735 86.045C74.8817 86.045 75.4857 86.902 75.4857 87.9591Z" fill="#F3F4F6"/>
<path d="M98.2785 88.6712C98.2785 95.7184 102.261 103.449 107.827 103.449C113.393 103.449 122.385 97.7073 122.385 87.1802C122.385 77.2912 112.671 73.7741 102.634 75.58C96.4827 76.6868 98.2785 81.624 98.2785 88.6712Z" fill="#D1D5DB"/>
<path d="M102.936 87.9592C102.936 89.0163 103.215 89.8732 104.615 89.8732C106.015 89.8732 106.295 89.0163 106.295 87.9592C106.295 86.9021 105.735 86.0452 104.615 86.0452C103.495 86.0452 102.936 86.9021 102.936 87.9592Z" fill="#F3F4F6"/>
<path d="M82.7148 98.9357C82.3685 98.432 81.6794 98.3044 81.1757 98.6507C80.672 98.997 80.5443 99.6861 80.8907 100.19L82.7148 98.9357ZM89.9195 97.3491L90.9662 96.9893C90.8126 96.5424 90.3921 96.2423 89.9195 96.2423C89.4469 96.2423 89.0264 96.5424 88.8728 96.9893L89.9195 97.3491ZM98.9483 100.19C99.2946 99.6861 99.167 98.997 98.6633 98.6507C98.1596 98.3044 97.4705 98.432 97.1242 98.9357L98.9483 100.19ZM80.8907 100.19C81.2235 100.674 81.8325 101.329 82.6508 101.87C83.4759 102.415 84.5732 102.883 85.8611 102.883V100.67C85.1199 100.67 84.4416 100.4 83.8716 100.023C83.2948 99.6417 82.8893 99.1895 82.7148 98.9357L80.8907 100.19ZM85.8611 102.883C87.421 102.883 88.5963 101.772 89.3438 100.784C90.1286 99.7461 90.6847 98.5279 90.9662 97.7089L88.8728 96.9893C88.647 97.6462 88.1885 98.6416 87.5782 99.4486C86.9307 100.305 86.3305 100.67 85.8611 100.67V102.883ZM88.8728 97.7089C89.1543 98.5279 89.7104 99.7461 90.4952 100.784C91.2427 101.772 92.418 102.883 93.9779 102.883V100.67C93.5085 100.67 92.9083 100.305 92.2608 99.4486C91.6505 98.6416 91.192 97.6462 90.9662 96.9893L88.8728 97.7089ZM93.9779 102.883C95.2658 102.883 96.363 102.415 97.1882 101.87C98.0065 101.329 98.6155 100.674 98.9483 100.19L97.1242 98.9357C96.9497 99.1895 96.5441 99.6417 95.9673 100.023C95.3974 100.4 94.7191 100.67 93.9779 100.67V102.883Z" fill="#D1D5DB"/>
<path d="M96.6774 96.2114C96.6774 97.249 91.9355 98.5729 90.4308 98.9669C90.1334 99.0448 89.8233 99.0448 89.5259 98.9669C88.0211 98.5729 83.2793 97.249 83.2793 96.2114C83.2793 94.9782 86.9833 93.6594 89.9783 93.6594C92.9734 93.6594 96.6774 94.9782 96.6774 96.2114Z" fill="#D1D5DB"/>
<path d="M90.9603 62.351C62.4865 64.1412 55.5417 55.052 54.5 51.217L70.4731 42.3097L88.5296 38.9695L113.531 51.9592C112.026 55.052 108.47 61.2502 90.9603 62.351Z" fill="#D1D5DB"/>
<path fill-rule="evenodd" clip-rule="evenodd" d="M84.6484 131.946C121.126 131.946 147.869 121.14 147.869 92.0706C147.869 55.7044 121.126 28.2703 84.6484 28.2703C48.1704 28.2703 22.0332 58.2564 22.0332 92.0706C22.0332 121.14 48.1704 131.946 84.6484 131.946ZM83.2147 120.781C110.047 120.781 129.718 112.868 129.718 91.5803C129.718 64.949 110.047 44.8588 83.2147 44.8588C56.3822 44.8588 37.1563 66.8179 37.1563 91.5803C37.1563 112.868 56.3822 120.781 83.2147 120.781Z" fill="#F3F4F6"/>
<path fill-rule="evenodd" clip-rule="evenodd" d="M7.10553 68.173C11.1508 63.6433 18.442 64.3947 21.4785 69.6541L25.9256 77.3568C28.9621 82.6162 25.9673 89.3062 20.0219 90.5447L18.0882 90.9475C17.9775 90.9706 17.8668 90.9915 17.756 91.0102C17.7143 91.1252 17.6613 91.237 17.5991 91.3439C15.8384 94.3706 15.0002 101.344 23.6756 109.414C32.1286 117.277 39.4359 117.849 42.7996 117.009C43.0382 116.95 43.2861 116.933 43.5252 116.963L43.9655 116.09C46.7006 110.668 53.9378 109.507 58.2321 113.801L64.5212 120.09C68.8155 124.384 67.6542 131.621 62.232 134.357L61.8252 134.562C61.7138 134.738 61.5549 134.892 61.3484 135.004C50.6389 140.816 26.5643 138.006 13.3956 119.694C-3.08668 96.7732 -1.42621 77.2848 5.07258 70.3312C5.18335 70.2127 5.30949 70.1216 5.44445 70.057C5.55492 69.9173 5.67007 69.7803 5.78986 69.6461L7.10553 68.173Z" fill="#D1D5DB"/>
<path d="M134.65 26.4413C136.411 22.4393 137.988 21.6467 140.407 21.2837C142.285 20.9799 143.806 20.5393 144.458 19.1019C145.077 17.6499 144.355 16.1827 142.92 15.5712C141.515 14.9337 139.799 15.3677 139.028 17.0303L133.747 14.7076C135.953 9.87121 140.528 9.24759 144.896 11.1686C149.712 13.2868 152.16 17.1382 150.321 21.3634C149.07 24.1626 146.84 25.2229 144.03 25.5727C141.777 25.83 140.477 26.4871 139.533 28.5887L139.328 29.0537L134.446 26.9063L134.65 26.4413ZM131.936 31.3515C132.618 29.7095 134.581 28.9872 136.225 29.7103C137.819 30.4115 138.646 32.3609 137.947 33.9956C137.193 35.6655 135.19 36.3897 133.596 35.6885C131.952 34.9654 131.165 33.0141 131.936 31.3515Z" fill="#D1D5DB"/>
<path d="M150.617 38.1128C152.943 35.7129 154.284 35.5643 156.114 35.9473C157.54 36.2288 158.747 36.3177 159.597 35.461C160.426 34.585 160.299 33.3417 159.433 32.5219C158.596 31.6918 157.25 31.5463 156.256 32.5327L153.089 29.4644C155.956 26.5854 159.4 27.3548 162.019 29.8924C164.907 32.6906 165.637 36.1012 163.197 38.6401C161.556 40.3133 159.676 40.4802 157.57 39.9839C155.886 39.5692 154.78 39.6945 153.545 40.9495L153.275 41.2283L150.347 38.3916L150.617 38.1128ZM147.367 40.9096C148.292 39.9144 149.891 39.9186 150.877 40.8739C151.833 41.8001 151.907 43.4169 150.971 44.4024C149.987 45.3985 148.359 45.3849 147.403 44.4586C146.417 43.5034 146.372 41.896 147.367 40.9096Z" fill="#D1D5DB"/>
</svg>
